<svg xmlns="http://www.w3.org/2000/svg" xmlns:xlink="http://www.w3.org/1999/xlink" width="500" zoomAndPan="magnify" viewBox="0 0 375 337.499995" height="450" preserveAspectRatio="xMidYMid meet" version="1.0"><defs><g/></defs><g fill="#5ce1e6" fill-opacity="1"><g transform="translate(-7.841176, 330.04603)"><g><path d="M 89.113281 0 L 143.3125 0 C 147.480469 0 150.085938 -2.605469 151.128906 -7.296875 L 220.960938 -314.761719 C 220.960938 -318.410156 217.3125 -322.058594 213.140625 -322.058594 L 182.394531 -322.058594 C 178.746094 -322.058594 175.621094 -318.410156 174.578125 -314.761719 L 116.210938 -51.59375 L 57.84375 -314.761719 C 56.804688 -318.410156 53.675781 -322.058594 50.027344 -322.058594 L 19.28125 -322.058594 C 15.113281 -322.058594 11.464844 -318.410156 11.464844 -314.761719 L 81.296875 -7.296875 C 82.339844 -2.605469 84.945312 0 89.113281 0 Z M 89.113281 0 "/></g></g></g><g fill="#5ce1e6" fill-opacity="1"><g transform="translate(150.322744, 330.04603)"><g><path d="M 19.28125 0 L 50.027344 0 C 53.675781 0 56.804688 -3.648438 57.84375 -7.296875 L 67.746094 -53.15625 L 164.15625 -53.15625 L 174.578125 -7.296875 C 175.621094 -3.648438 178.746094 0 182.394531 0 L 213.140625 0 C 217.3125 0 220.960938 -3.648438 220.960938 -7.296875 L 151.128906 -314.761719 C 150.085938 -319.453125 147.480469 -322.058594 143.3125 -322.058594 L 89.113281 -322.058594 C 84.945312 -322.058594 82.339844 -319.453125 81.296875 -314.761719 L 11.464844 -7.296875 C 11.464844 -3.648438 15.113281 0 19.28125 0 Z M 76.605469 -93.28125 L 116.210938 -270.464844 L 155.296875 -93.28125 Z M 76.605469 -93.28125 "/></g></g></g></svg>